{
    "asset" : {
        "generator" : "Khronos glTF Blender I/O v1.8.19",
        "version" : "2.0"
    },
    "extensionsUsed" : [
        "KHR_materials_unlit"
    ],
    "scene" : 0,
    "scenes" : [
        {
            "name" : "Scene",
            "nodes" : [
                0,
                1,
                2,
                3
            ]
        }
    ],
    "nodes" : [
        {
            "mesh" : 0,
            "name" : "envelope"
        },
        {
            "mesh" : 1,
            "name" : "flap",
            "rotation" : [
                -1,
                0,
                0,
                4.887620548288396e-07
            ],
            "translation" : [
                0,
                1,
                0.040554165840148926
            ]
        },
        {
            "mesh" : 2,
            "name" : "paper",
            "rotation" : [
                0.7071068286895752,
                0,
                0,
                0.7071068286895752
            ],
            "translation" : [
                0,
                0.1959715485572815,
                0
            ]
        },
        {
            "mesh" : 3,
            "name" : "Text",
            "rotation" : [
                0.7071068286895752,
                0,
                0,
                0.7071068286895752
            ],
            "scale" : [
                0.6002532839775085,
                0.6002532839775085,
                0.6002532839775085
            ],
            "translation" : [
                -0.6765541434288025,
                0.4634227156639099,
                0.04055409133434296
            ]
        }
    ],
    "materials" : [
        {
            "doubleSided" : true,
            "extensions" : {
                "KHR_materials_unlit" : {}
            },
            "name" : "enveloper",
            "pbrMetallicRoughness" : {
                "baseColorFactor" : [
                    0.035600751638412476,
                    0.5088810920715332,
                    0.25818297266960144,
                    1
                ],
                "metallicFactor" : 0,
                "roughnessFactor" : 0.9
            }
        },
        {
            "doubleSided" : true,
            "extensions" : {
                "KHR_materials_unlit" : {}
            },
            "name" : "Material.001",
            "pbrMetallicRoughness" : {
                "baseColorFactor" : [
                    0,
                    0,
                    0,
                    1
                ],
                "metallicFactor" : 0,
                "roughnessFactor" : 0.9
            }
        },
        {
            "doubleSided" : true,
            "extensions" : {
                "KHR_materials_unlit" : {}
            },
            "name" : "Material",
            "pbrMetallicRoughness" : {
                "baseColorFactor" : [
                    0.5775805711746216,
                    0.021218761801719666,
                    0.27467718720436096,
                    1
                ],
                "metallicFactor" : 0,
                "roughnessFactor" : 0.9
            }
        },
        {
            "doubleSided" : true,
            "extensions" : {
                "KHR_materials_unlit" : {}
            },
            "name" : "Material.002",
            "pbrMetallicRoughness" : {
                "baseColorFactor" : [
                    0.9734451770782471,
                    0.3915722668170929,
                    0.004391565918922424,
                    1
                ],
                "metallicFactor" : 0,
                "roughnessFactor" : 0.9
            }
        }
    ],
    "meshes" : [
        {
            "name" : "Cube",
            "primitives" : [
                {
                    "attributes" : {
                        "POSITION" : 0,
                        "NORMAL" : 1,
                        "TEXCOORD_0" : 2
                    },
                    "indices" : 3,
                    "material" : 0
                },
                {
                    "attributes" : {
                        "POSITION" : 4,
                        "NORMAL" : 5,
                        "TEXCOORD_0" : 6
                    },
                    "indices" : 7,
                    "material" : 1
                }
            ]
        },
        {
            "name" : "Cube.001",
            "primitives" : [
                {
                    "attributes" : {
                        "POSITION" : 8,
                        "NORMAL" : 9,
                        "TEXCOORD_0" : 10
                    },
                    "indices" : 11,
                    "material" : 0
                },
                {
                    "attributes" : {
                        "POSITION" : 12,
                        "NORMAL" : 13,
                        "TEXCOORD_0" : 14
                    },
                    "indices" : 15,
                    "material" : 1
                }
            ]
        },
        {
            "name" : "Plane",
            "primitives" : [
                {
                    "attributes" : {
                        "POSITION" : 16,
                        "NORMAL" : 17,
                        "TEXCOORD_0" : 18
                    },
                    "indices" : 19,
                    "material" : 2
                },
                {
                    "attributes" : {
                        "POSITION" : 20,
                        "NORMAL" : 21,
                        "TEXCOORD_0" : 22
                    },
                    "indices" : 23,
                    "material" : 1
                }
            ]
        },
        {
            "name" : "Text",
            "primitives" : [
                {
                    "attributes" : {
                        "POSITION" : 24,
                        "NORMAL" : 25,
                        "TEXCOORD_0" : 26
                    },
                    "indices" : 27,
                    "material" : 3
                }
            ]
        }
    ],
    "accessors" : [
        {
            "bufferView" : 0,
            "componentType" : 5126,
            "count" : 32,
            "max" : [
                1.9557764530181885,
                1,
                0.037428561598062515
            ],
            "min" : [
                -1.9557764530181885,
                -1,
                -0.026999985799193382
            ],
            "type" : "VEC3"
        },
        {
            "bufferView" : 1,
            "componentType" : 5126,
            "count" : 32,
            "type" : "VEC3"
        },
        {
            "bufferView" : 2,
            "componentType" : 5126,
            "count" : 32,
            "type" : "VEC2"
        },
        {
            "bufferView" : 3,
            "componentType" : 5123,
            "count" : 60,
            "type" : "SCALAR"
        },
        {
            "bufferView" : 4,
            "componentType" : 5126,
            "count" : 20,
            "max" : [
                1.9557764530181885,
                1,
                0.037428561598062515
            ],
            "min" : [
                -1.9557764530181885,
                -1,
                0.037428561598062515
            ],
            "type" : "VEC3"
        },
        {
            "bufferView" : 5,
            "componentType" : 5126,
            "count" : 20,
            "type" : "VEC3"
        },
        {
            "bufferView" : 6,
            "componentType" : 5126,
            "count" : 20,
            "type" : "VEC2"
        },
        {
            "bufferView" : 7,
            "componentType" : 5123,
            "count" : 36,
            "type" : "SCALAR"
        },
        {
            "bufferView" : 8,
            "componentType" : 5126,
            "count" : 4,
            "max" : [
                1.834274411201477,
                -0.02573290839791298,
                0
            ],
            "min" : [
                -1.834274411201477,
                -0.9636081457138062,
                0
            ],
            "type" : "VEC3"
        },
        {
            "bufferView" : 9,
            "componentType" : 5126,
            "count" : 4,
            "type" : "VEC3"
        },
        {
            "bufferView" : 10,
            "componentType" : 5126,
            "count" : 4,
            "type" : "VEC2"
        },
        {
            "bufferView" : 11,
            "componentType" : 5123,
            "count" : 6,
            "type" : "SCALAR"
        },
        {
            "bufferView" : 12,
            "componentType" : 5126,
            "count" : 12,
            "max" : [
                1.9557764530181885,
                0,
                0
            ],
            "min" : [
                -1.9557764530181885,
                -1,
                0
            ],
            "type" : "VEC3"
        },
        {
            "bufferView" : 13,
            "componentType" : 5126,
            "count" : 12,
            "type" : "VEC3"
        },
        {
            "bufferView" : 14,
            "componentType" : 5126,
            "count" : 12,
            "type" : "VEC2"
        },
        {
            "bufferView" : 15,
            "componentType" : 5123,
            "count" : 24,
            "type" : "SCALAR"
        },
        {
            "bufferView" : 16,
            "componentType" : 5126,
            "count" : 4,
            "max" : [
                1.9218273162841797,
                0,
                0.7455450296401978
            ],
            "min" : [
                -1.9218273162841797,
                0,
                -0.7455450296401978
            ],
            "type" : "VEC3"
        },
        {
            "bufferView" : 17,
            "componentType" : 5126,
            "count" : 4,
            "type" : "VEC3"
        },
        {
            "bufferView" : 18,
            "componentType" : 5126,
            "count" : 4,
            "type" : "VEC2"
        },
        {
            "bufferView" : 19,
            "componentType" : 5123,
            "count" : 6,
            "type" : "SCALAR"
        },
        {
            "bufferView" : 20,
            "componentType" : 5126,
            "count" : 8,
            "max" : [
                1.9592053890228271,
                0,
                0.7829231023788452
            ],
            "min" : [
                -1.9592053890228271,
                0,
                -0.7829231023788452
            ],
            "type" : "VEC3"
        },
        {
            "bufferView" : 21,
            "componentType" : 5126,
            "count" : 8,
            "type" : "VEC3"
        },
        {
            "bufferView" : 22,
            "componentType" : 5126,
            "count" : 8,
            "type" : "VEC2"
        },
        {
            "bufferView" : 23,
            "componentType" : 5123,
            "count" : 24,
            "type" : "SCALAR"
        },
        {
            "bufferView" : 24,
            "componentType" : 5126,
            "count" : 196,
            "max" : [
                2.3770346641540527,
                0,
                0
            ],
            "min" : [
                -0.0027124774642288685,
                0,
                -0.6374322175979614
            ],
            "type" : "VEC3"
        },
        {
            "bufferView" : 25,
            "componentType" : 5126,
            "count" : 196,
            "type" : "VEC3"
        },
        {
            "bufferView" : 26,
            "componentType" : 5126,
            "count" : 196,
            "type" : "VEC2"
        },
        {
            "bufferView" : 27,
            "componentType" : 5123,
            "count" : 423,
            "type" : "SCALAR"
        }
    ],
    "bufferViews" : [
        {
            "buffer" : 0,
            "byteLength" : 384,
            "byteOffset" : 0
        },
        {
            "buffer" : 0,
            "byteLength" : 384,
            "byteOffset" : 384
        },
        {
            "buffer" : 0,
            "byteLength" : 256,
            "byteOffset" : 768
        },
        {
            "buffer" : 0,
            "byteLength" : 120,
            "byteOffset" : 1024
        },
        {
            "buffer" : 0,
            "byteLength" : 240,
            "byteOffset" : 1144
        },
        {
            "buffer" : 0,
            "byteLength" : 240,
            "byteOffset" : 1384
        },
        {
            "buffer" : 0,
            "byteLength" : 160,
            "byteOffset" : 1624
        },
        {
            "buffer" : 0,
            "byteLength" : 72,
            "byteOffset" : 1784
        },
        {
            "buffer" : 0,
            "byteLength" : 48,
            "byteOffset" : 1856
        },
        {
            "buffer" : 0,
            "byteLength" : 48,
            "byteOffset" : 1904
        },
        {
            "buffer" : 0,
            "byteLength" : 32,
            "byteOffset" : 1952
        },
        {
            "buffer" : 0,
            "byteLength" : 12,
            "byteOffset" : 1984
        },
        {
            "buffer" : 0,
            "byteLength" : 144,
            "byteOffset" : 1996
        },
        {
            "buffer" : 0,
            "byteLength" : 144,
            "byteOffset" : 2140
        },
        {
            "buffer" : 0,
            "byteLength" : 96,
            "byteOffset" : 2284
        },
        {
            "buffer" : 0,
            "byteLength" : 48,
            "byteOffset" : 2380
        },
        {
            "buffer" : 0,
            "byteLength" : 48,
            "byteOffset" : 2428
        },
        {
            "buffer" : 0,
            "byteLength" : 48,
            "byteOffset" : 2476
        },
        {
            "buffer" : 0,
            "byteLength" : 32,
            "byteOffset" : 2524
        },
        {
            "buffer" : 0,
            "byteLength" : 12,
            "byteOffset" : 2556
        },
        {
            "buffer" : 0,
            "byteLength" : 96,
            "byteOffset" : 2568
        },
        {
            "buffer" : 0,
            "byteLength" : 96,
            "byteOffset" : 2664
        },
        {
            "buffer" : 0,
            "byteLength" : 64,
            "byteOffset" : 2760
        },
        {
            "buffer" : 0,
            "byteLength" : 48,
            "byteOffset" : 2824
        },
        {
            "buffer" : 0,
            "byteLength" : 2352,
            "byteOffset" : 2872
        },
        {
            "buffer" : 0,
            "byteLength" : 2352,
            "byteOffset" : 5224
        },
        {
            "buffer" : 0,
            "byteLength" : 1568,
            "byteOffset" : 7576
        },
        {
            "buffer" : 0,
            "byteLength" : 846,
            "byteOffset" : 9144
        }
    ],
    "buffers" : [
        {
            "byteLength" : 9992,
            "uri" : "data:application/octet-stream;base64,"
        }
    ]
}
