{
    "asset" : {
        "generator" : "Khronos glTF Blender I/O v1.8.19",
        "version" : "2.0"
    },
    "extensionsUsed" : [
        "KHR_materials_unlit"
    ],
    "scene" : 0,
    "scenes" : [
        {
            "name" : "Scene",
            "nodes" : [
                0,
                1,
                5,
                6
            ]
        }
    ],
    "nodes" : [
        {
            "name" : "Empty",
            "rotation" : [
                0.7071068286895752,
                0,
                0,
                0.7071067094802856
            ],
            "scale" : [
                0.8114795684814453,
                0.8114795684814453,
                0.8114795684814453
            ],
            "translation" : [
                0.04824736714363098,
                0.2756992280483246,
                0
            ]
        },
        {
            "name" : "Empty.001",
            "rotation" : [
                0.7071068286895752,
                0,
                0,
                0.7071067094802856
            ],
            "scale" : [
                2.1181719303131104,
                2.1181719303131104,
                2.1181719303131104
            ],
            "translation" : [
                1.235388159751892,
                -1.882495641708374,
                0
            ]
        },
        {
            "mesh" : 0,
            "name" : "Cylinder",
            "rotation" : [
                0.7071068286895752,
                0,
                0,
                0.7071067094802856
            ],
            "scale" : [
                0.04124491661787033,
                0.1503204107284546,
                0.04124491661787033
            ],
            "translation" : [
                0.14614877104759216,
                0.20722590386867523,
                0.7163439393043518
            ]
        },
        {
            "mesh" : 1,
            "name" : "trucks",
            "scale" : [
                1,
                1,
                11.324088096618652
            ]
        },
        {
            "mesh" : 2,
            "name" : "wheels",
            "rotation" : [
                0,
                0,
                -0.7071067094802856,
                0.7071068286895752
            ],
            "scale" : [
                0.23804017901420593,
                0.6356971263885498,
                2.6955883502960205
            ],
            "translation" : [
                0.49584317207336426,
                0.563556432723999,
                2.841850519180298
            ]
        },
        {
            "children" : [
                2,
                3,
                4
            ],
            "mesh" : 3,
            "name" : "board",
            "scale" : [
                1,
                1,
                0.08830732107162476
            ]
        },
        {
            "mesh" : 4,
            "name" : "Text",
            "rotation" : [
                0,
                0.7071068286895752,
                -0.7071068286895752,
                -1.1520232590100932e-07
            ],
            "scale" : [
                0.32720446586608887,
                0.32720446586608887,
                0.32720446586608887
            ],
            "translation" : [
                0,
                0.33559852838516235,
                -0.7014010548591614
            ]
        }
    ],
    "animations" : [
        {
            "channels" : [
                {
                    "sampler" : 0,
                    "target" : {
                        "node" : 5,
                        "path" : "translation"
                    }
                },
                {
                    "sampler" : 1,
                    "target" : {
                        "node" : 5,
                        "path" : "rotation"
                    }
                }
            ],
            "name" : "boardAction.001",
            "samplers" : [
                {
                    "input" : 28,
                    "interpolation" : "LINEAR",
                    "output" : 29
                },
                {
                    "input" : 30,
                    "interpolation" : "LINEAR",
                    "output" : 31
                }
            ]
        },
        {
            "channels" : [
                {
                    "sampler" : 0,
                    "target" : {
                        "node" : 3,
                        "path" : "translation"
                    }
                },
                {
                    "sampler" : 1,
                    "target" : {
                        "node" : 3,
                        "path" : "rotation"
                    }
                }
            ],
            "name" : "trucksAction.001",
            "samplers" : [
                {
                    "input" : 28,
                    "interpolation" : "LINEAR",
                    "output" : 32
                },
                {
                    "input" : 28,
                    "interpolation" : "LINEAR",
                    "output" : 33
                }
            ]
        },
        {
            "channels" : [
                {
                    "sampler" : 0,
                    "target" : {
                        "node" : 4,
                        "path" : "translation"
                    }
                },
                {
                    "sampler" : 1,
                    "target" : {
                        "node" : 4,
                        "path" : "rotation"
                    }
                }
            ],
            "name" : "wheelsAction.001",
            "samplers" : [
                {
                    "input" : 28,
                    "interpolation" : "LINEAR",
                    "output" : 34
                },
                {
                    "input" : 28,
                    "interpolation" : "LINEAR",
                    "output" : 35
                }
            ]
        },
        {
            "channels" : [
                {
                    "sampler" : 0,
                    "target" : {
                        "node" : 2,
                        "path" : "translation"
                    }
                },
                {
                    "sampler" : 1,
                    "target" : {
                        "node" : 2,
                        "path" : "rotation"
                    }
                }
            ],
            "name" : "CylinderAction.001",
            "samplers" : [
                {
                    "input" : 28,
                    "interpolation" : "LINEAR",
                    "output" : 36
                },
                {
                    "input" : 28,
                    "interpolation" : "LINEAR",
                    "output" : 37
                }
            ]
        }
    ],
    "materials" : [
        {
            "doubleSided" : true,
            "extensions" : {
                "KHR_materials_unlit" : {}
            },
            "name" : "skateWheels",
            "pbrMetallicRoughness" : {
                "baseColorFactor" : [
                    0.5775805711746216,
                    0.021218761801719666,
                    0.27467718720436096,
                    1
                ],
                "metallicFactor" : 0,
                "roughnessFactor" : 0.9
            }
        },
        {
            "doubleSided" : true,
            "extensions" : {
                "KHR_materials_unlit" : {}
            },
            "name" : "Material",
            "pbrMetallicRoughness" : {
                "baseColorFactor" : [
                    0.035600751638412476,
                    0.5088810920715332,
                    0.25818297266960144,
                    1
                ],
                "metallicFactor" : 0,
                "roughnessFactor" : 0.9
            }
        },
        {
            "doubleSided" : true,
            "extensions" : {
                "KHR_materials_unlit" : {}
            },
            "name" : "SkateBottom",
            "pbrMetallicRoughness" : {
                "baseColorFactor" : [
                    0.1682688295841217,
                    0.12213850766420364,
                    0.6583746671676636,
                    1
                ],
                "metallicFactor" : 0,
                "roughnessFactor" : 0.9
            }
        },
        {
            "doubleSided" : true,
            "extensions" : {
                "KHR_materials_unlit" : {}
            },
            "name" : "gripTape",
            "pbrMetallicRoughness" : {
                "baseColorFactor" : [
                    0.0070570786483585835,
                    0.005737519823014736,
                    0.018982240930199623,
                    1
                ],
                "metallicFactor" : 0,
                "roughnessFactor" : 0.9
            }
        }
    ],
    "meshes" : [
        {
            "name" : "Cylinder",
            "primitives" : [
                {
                    "attributes" : {
                        "POSITION" : 0,
                        "NORMAL" : 1,
                        "TEXCOORD_0" : 2
                    },
                    "indices" : 3,
                    "material" : 0
                }
            ]
        },
        {
            "name" : "Cube.002",
            "primitives" : [
                {
                    "attributes" : {
                        "POSITION" : 4,
                        "NORMAL" : 5,
                        "TEXCOORD_0" : 6
                    },
                    "indices" : 7,
                    "material" : 1
                },
                {
                    "attributes" : {
                        "POSITION" : 8,
                        "NORMAL" : 9,
                        "TEXCOORD_0" : 10
                    },
                    "indices" : 11,
                    "material" : 0
                }
            ]
        },
        {
            "name" : "Torus",
            "primitives" : [
                {
                    "attributes" : {
                        "POSITION" : 12,
                        "NORMAL" : 13,
                        "TEXCOORD_0" : 14
                    },
                    "indices" : 15,
                    "material" : 0
                }
            ]
        },
        {
            "name" : "Cube.001",
            "primitives" : [
                {
                    "attributes" : {
                        "POSITION" : 16,
                        "NORMAL" : 17,
                        "TEXCOORD_0" : 18
                    },
                    "indices" : 19,
                    "material" : 2
                },
                {
                    "attributes" : {
                        "POSITION" : 20,
                        "NORMAL" : 21,
                        "TEXCOORD_0" : 22
                    },
                    "indices" : 23,
                    "material" : 3
                }
            ]
        },
        {
            "name" : "Text",
            "primitives" : [
                {
                    "attributes" : {
                        "POSITION" : 24,
                        "NORMAL" : 25,
                        "TEXCOORD_0" : 26
                    },
                    "indices" : 27
                }
            ]
        }
    ],
    "accessors" : [
        {
            "bufferView" : 0,
            "componentType" : 5126,
            "count" : 72,
            "max" : [
                0.866025447845459,
                1.0000015497207642,
                1.000000238418579
            ],
            "min" : [
                -7.952899932861328,
                -1,
                -1
            ],
            "type" : "VEC3"
        },
        {
            "bufferView" : 1,
            "componentType" : 5126,
            "count" : 72,
            "type" : "VEC3"
        },
        {
            "bufferView" : 2,
            "componentType" : 5126,
            "count" : 72,
            "type" : "VEC2"
        },
        {
            "bufferView" : 3,
            "componentType" : 5123,
            "count" : 120,
            "type" : "SCALAR"
        },
        {
            "bufferView" : 4,
            "componentType" : 5126,
            "count" : 158,
            "max" : [
                0.7158105969429016,
                0.694360077381134,
                0.28106677532196045
            ],
            "min" : [
                -0.7158105969429016,
                0.09709355235099792,
                -0.1614055633544922
            ],
            "type" : "VEC3"
        },
        {
            "bufferView" : 5,
            "componentType" : 5126,
            "count" : 158,
            "type" : "VEC3"
        },
        {
            "bufferView" : 6,
            "componentType" : 5126,
            "count" : 158,
            "type" : "VEC2"
        },
        {
            "bufferView" : 7,
            "componentType" : 5123,
            "count" : 276,
            "type" : "SCALAR"
        },
        {
            "bufferView" : 8,
            "componentType" : 5126,
            "count" : 212,
            "max" : [
                0.1614055633544922,
                0.4805019199848175,
                0.28106677532196045
            ],
            "min" : [
                -0.1614055633544922,
                0.15769079327583313,
                -0.1614055633544922
            ],
            "type" : "VEC3"
        },
        {
            "bufferView" : 9,
            "componentType" : 5126,
            "count" : 212,
            "type" : "VEC3"
        },
        {
            "bufferView" : 10,
            "componentType" : 5126,
            "count" : 212,
            "type" : "VEC2"
        },
        {
            "bufferView" : 11,
            "componentType" : 5123,
            "count" : 348,
            "type" : "SCALAR"
        },
        {
            "bufferView" : 12,
            "componentType" : 5126,
            "count" : 1274,
            "max" : [
                1.25,
                0.25,
                1.2500001192092896
            ],
            "min" : [
                -1.2500003576278687,
                -1.809997797012329,
                -1.25
            ],
            "type" : "VEC3"
        },
        {
            "bufferView" : 13,
            "componentType" : 5126,
            "count" : 1274,
            "type" : "VEC3"
        },
        {
            "bufferView" : 14,
            "componentType" : 5126,
            "count" : 1274,
            "type" : "VEC2"
        },
        {
            "bufferView" : 15,
            "componentType" : 5123,
            "count" : 6912,
            "type" : "SCALAR"
        },
        {
            "bufferView" : 16,
            "componentType" : 5126,
            "count" : 560,
            "max" : [
                0.8279854655265808,
                1.4900941848754883,
                1.010030746459961
            ],
            "min" : [
                -0.8279854655265808,
                -0.41875284910202026,
                -5.445789337158203
            ],
            "type" : "VEC3"
        },
        {
            "bufferView" : 17,
            "componentType" : 5126,
            "count" : 560,
            "type" : "VEC3"
        },
        {
            "bufferView" : 18,
            "componentType" : 5126,
            "count" : 560,
            "type" : "VEC2"
        },
        {
            "bufferView" : 19,
            "componentType" : 5123,
            "count" : 1620,
            "type" : "SCALAR"
        },
        {
            "bufferView" : 20,
            "componentType" : 5126,
            "count" : 273,
            "max" : [
                0.8210567235946655,
                1.4662725925445557,
                0.06900455057621002
            ],
            "min" : [
                -0.8210567235946655,
                -0.41875284910202026,
                -5.445789337158203
            ],
            "type" : "VEC3"
        },
        {
            "bufferView" : 21,
            "componentType" : 5126,
            "count" : 273,
            "type" : "VEC3"
        },
        {
            "bufferView" : 22,
            "componentType" : 5126,
            "count" : 273,
            "type" : "VEC2"
        },
        {
            "bufferView" : 23,
            "componentType" : 5123,
            "count" : 894,
            "type" : "SCALAR"
        },
        {
            "bufferView" : 24,
            "componentType" : 5126,
            "count" : 237,
            "max" : [
                1.8322786092758179,
                0,
                0.3675406873226166
            ],
            "min" : [
                -1.8322784900665283,
                0,
                -0.36754071712493896
            ],
            "type" : "VEC3"
        },
        {
            "bufferView" : 25,
            "componentType" : 5126,
            "count" : 237,
            "type" : "VEC3"
        },
        {
            "bufferView" : 26,
            "componentType" : 5126,
            "count" : 237,
            "type" : "VEC2"
        },
        {
            "bufferView" : 27,
            "componentType" : 5123,
            "count" : 525,
            "type" : "SCALAR"
        },
        {
            "bufferView" : 28,
            "componentType" : 5126,
            "count" : 2,
            "max" : [
                2
            ],
            "min" : [
                0.041666666666666664
            ],
            "type" : "SCALAR"
        },
        {
            "bufferView" : 29,
            "componentType" : 5126,
            "count" : 2,
            "type" : "VEC3"
        },
        {
            "bufferView" : 30,
            "componentType" : 5126,
            "count" : 48,
            "max" : [
                2
            ],
            "min" : [
                0.041666666666666664
            ],
            "type" : "SCALAR"
        },
        {
            "bufferView" : 31,
            "componentType" : 5126,
            "count" : 48,
            "type" : "VEC4"
        },
        {
            "bufferView" : 32,
            "componentType" : 5126,
            "count" : 2,
            "type" : "VEC3"
        },
        {
            "bufferView" : 33,
            "componentType" : 5126,
            "count" : 2,
            "type" : "VEC4"
        },
        {
            "bufferView" : 34,
            "componentType" : 5126,
            "count" : 2,
            "type" : "VEC3"
        },
        {
            "bufferView" : 35,
            "componentType" : 5126,
            "count" : 2,
            "type" : "VEC4"
        },
        {
            "bufferView" : 36,
            "componentType" : 5126,
            "count" : 2,
            "type" : "VEC3"
        },
        {
            "bufferView" : 37,
            "componentType" : 5126,
            "count" : 2,
            "type" : "VEC4"
        }
    ],
    "bufferViews" : [
        {
            "buffer" : 0,
            "byteLength" : 864,
            "byteOffset" : 0
        },
        {
            "buffer" : 0,
            "byteLength" : 864,
            "byteOffset" : 864
        },
        {
            "buffer" : 0,
            "byteLength" : 576,
            "byteOffset" : 1728
        },
        {
            "buffer" : 0,
            "byteLength" : 240,
            "byteOffset" : 2304
        },
        {
            "buffer" : 0,
            "byteLength" : 1896,
            "byteOffset" : 2544
        },
        {
            "buffer" : 0,
            "byteLength" : 1896,
            "byteOffset" : 4440
        },
        {
            "buffer" : 0,
            "byteLength" : 1264,
            "byteOffset" : 6336
        },
        {
            "buffer" : 0,
            "byteLength" : 552,
            "byteOffset" : 7600
        },
        {
            "buffer" : 0,
            "byteLength" : 2544,
            "byteOffset" : 8152
        },
        {
            "buffer" : 0,
            "byteLength" : 2544,
            "byteOffset" : 10696
        },
        {
            "buffer" : 0,
            "byteLength" : 1696,
            "byteOffset" : 13240
        },
        {
            "buffer" : 0,
            "byteLength" : 696,
            "byteOffset" : 14936
        },
        {
            "buffer" : 0,
            "byteLength" : 15288,
            "byteOffset" : 15632
        },
        {
            "buffer" : 0,
            "byteLength" : 15288,
            "byteOffset" : 30920
        },
        {
            "buffer" : 0,
            "byteLength" : 10192,
            "byteOffset" : 46208
        },
        {
            "buffer" : 0,
            "byteLength" : 13824,
            "byteOffset" : 56400
        },
        {
            "buffer" : 0,
            "byteLength" : 6720,
            "byteOffset" : 70224
        },
        {
            "buffer" : 0,
            "byteLength" : 6720,
            "byteOffset" : 76944
        },
        {
            "buffer" : 0,
            "byteLength" : 4480,
            "byteOffset" : 83664
        },
        {
            "buffer" : 0,
            "byteLength" : 3240,
            "byteOffset" : 88144
        },
        {
            "buffer" : 0,
            "byteLength" : 3276,
            "byteOffset" : 91384
        },
        {
            "buffer" : 0,
            "byteLength" : 3276,
            "byteOffset" : 94660
        },
        {
            "buffer" : 0,
            "byteLength" : 2184,
            "byteOffset" : 97936
        },
        {
            "buffer" : 0,
            "byteLength" : 1788,
            "byteOffset" : 100120
        },
        {
            "buffer" : 0,
            "byteLength" : 2844,
            "byteOffset" : 101908
        },
        {
            "buffer" : 0,
            "byteLength" : 2844,
            "byteOffset" : 104752
        },
        {
            "buffer" : 0,
            "byteLength" : 1896,
            "byteOffset" : 107596
        },
        {
            "buffer" : 0,
            "byteLength" : 1050,
            "byteOffset" : 109492
        },
        {
            "buffer" : 0,
            "byteLength" : 8,
            "byteOffset" : 110544
        },
        {
            "buffer" : 0,
            "byteLength" : 24,
            "byteOffset" : 110552
        },
        {
            "buffer" : 0,
            "byteLength" : 192,
            "byteOffset" : 110576
        },
        {
            "buffer" : 0,
            "byteLength" : 768,
            "byteOffset" : 110768
        },
        {
            "buffer" : 0,
            "byteLength" : 24,
            "byteOffset" : 111536
        },
        {
            "buffer" : 0,
            "byteLength" : 32,
            "byteOffset" : 111560
        },
        {
            "buffer" : 0,
            "byteLength" : 24,
            "byteOffset" : 111592
        },
        {
            "buffer" : 0,
            "byteLength" : 32,
            "byteOffset" : 111616
        },
        {
            "buffer" : 0,
            "byteLength" : 24,
            "byteOffset" : 111648
        },
        {
            "buffer" : 0,
            "byteLength" : 32,
            "byteOffset" : 111672
        }
    ],
    "buffers" : [
        {
            "byteLength" : 111704,
            "uri" : "data:application/octet-stream;base64,"
        }
    ]
}
