{
    "asset" : {
        "generator" : "Khronos glTF Blender I/O v1.8.19",
        "version" : "2.0"
    },
    "extensionsUsed" : [
        "KHR_materials_unlit"
    ],
    "scene" : 0,
    "scenes" : [
        {
            "name" : "Scene",
            "nodes" : [
                0,
                1,
                2
            ]
        }
    ],
    "nodes" : [
        {
            "mesh" : 0,
            "name" : "Cube"
        },
        {
            "mesh" : 1,
            "name" : "Roundcube",
            "translation" : [
                0,
                0.4764954447746277,
                -0.008829474449157715
            ]
        },
        {
            "mesh" : 2,
            "name" : "Cube.001",
            "rotation" : [
                0.7071074843406677,
                0,
                0,
                0.7071061134338379
            ],
            "translation" : [
                0,
                0.9987747073173523,
                0.004772782325744629
            ]
        }
    ],
    "materials" : [
        {
            "doubleSided" : true,
            "extensions" : {
                "KHR_materials_unlit" : {}
            },
            "name" : "Pink",
            "pbrMetallicRoughness" : {
                "baseColorFactor" : [
                    0.5775805711746216,
                    0.021218761801719666,
                    0.27467718720436096,
                    1
                ],
                "metallicFactor" : 0,
                "roughnessFactor" : 0.9
            }
        },
        {
            "doubleSided" : true,
            "extensions" : {
                "KHR_materials_unlit" : {}
            },
            "name" : "Yellow",
            "pbrMetallicRoughness" : {
                "baseColorFactor" : [
                    0.9734451770782471,
                    0.3915722668170929,
                    0.004391565918922424,
                    1
                ],
                "metallicFactor" : 0,
                "roughnessFactor" : 0.9
            }
        },
        {
            "doubleSided" : true,
            "extensions" : {
                "KHR_materials_unlit" : {}
            },
            "name" : "Green",
            "pbrMetallicRoughness" : {
                "baseColorFactor" : [
                    0.035600751638412476,
                    0.5088810920715332,
                    0.25818297266960144,
                    1
                ],
                "metallicFactor" : 0,
                "roughnessFactor" : 0.9
            }
        },
        {
            "doubleSided" : true,
            "extensions" : {
                "KHR_materials_unlit" : {}
            },
            "name" : "Purple",
            "pbrMetallicRoughness" : {
                "baseColorFactor" : [
                    0.1682688295841217,
                    0.12213850766420364,
                    0.6583746671676636,
                    1
                ],
                "metallicFactor" : 0,
                "roughnessFactor" : 0.9
            }
        },
        {
            "doubleSided" : true,
            "extensions" : {
                "KHR_materials_unlit" : {}
            },
            "name" : "Black",
            "pbrMetallicRoughness" : {
                "baseColorFactor" : [
                    0,
                    0,
                    0,
                    1
                ],
                "metallicFactor" : 0,
                "roughnessFactor" : 0.9
            }
        }
    ],
    "meshes" : [
        {
            "name" : "Cube",
            "primitives" : [
                {
                    "attributes" : {
                        "POSITION" : 0,
                        "NORMAL" : 1,
                        "TEXCOORD_0" : 2
                    },
                    "indices" : 3,
                    "material" : 0
                },
                {
                    "attributes" : {
                        "POSITION" : 4,
                        "NORMAL" : 5,
                        "TEXCOORD_0" : 6
                    },
                    "indices" : 7,
                    "material" : 1
                },
                {
                    "attributes" : {
                        "POSITION" : 8,
                        "NORMAL" : 9,
                        "TEXCOORD_0" : 10
                    },
                    "indices" : 11,
                    "material" : 2
                },
                {
                    "attributes" : {
                        "POSITION" : 12,
                        "NORMAL" : 13,
                        "TEXCOORD_0" : 14
                    },
                    "indices" : 11,
                    "material" : 3
                },
                {
                    "attributes" : {
                        "POSITION" : 15,
                        "NORMAL" : 16,
                        "TEXCOORD_0" : 17
                    },
                    "indices" : 18,
                    "material" : 4
                }
            ]
        },
        {
            "name" : "Roundcube",
            "primitives" : [
                {
                    "attributes" : {
                        "POSITION" : 19,
                        "NORMAL" : 20
                    },
                    "indices" : 21,
                    "material" : 4
                }
            ]
        },
        {
            "name" : "Cube.001",
            "primitives" : [
                {
                    "attributes" : {
                        "POSITION" : 22,
                        "NORMAL" : 23,
                        "TEXCOORD_0" : 24
                    },
                    "indices" : 25,
                    "material" : 0
                },
                {
                    "attributes" : {
                        "POSITION" : 26,
                        "NORMAL" : 27,
                        "TEXCOORD_0" : 28
                    },
                    "indices" : 29,
                    "material" : 1
                },
                {
                    "attributes" : {
                        "POSITION" : 30,
                        "NORMAL" : 31,
                        "TEXCOORD_0" : 32
                    },
                    "indices" : 33,
                    "material" : 2
                },
                {
                    "attributes" : {
                        "POSITION" : 34,
                        "NORMAL" : 35,
                        "TEXCOORD_0" : 36
                    },
                    "indices" : 37,
                    "material" : 4
                }
            ]
        }
    ],
    "accessors" : [
        {
            "bufferView" : 0,
            "componentType" : 5126,
            "count" : 409,
            "max" : [
                1,
                1,
                1
            ],
            "min" : [
                -1,
                -1,
                -1
            ],
            "type" : "VEC3"
        },
        {
            "bufferView" : 1,
            "componentType" : 5126,
            "count" : 409,
            "type" : "VEC3"
        },
        {
            "bufferView" : 2,
            "componentType" : 5126,
            "count" : 409,
            "type" : "VEC2"
        },
        {
            "bufferView" : 3,
            "componentType" : 5123,
            "count" : 768,
            "type" : "SCALAR"
        },
        {
            "bufferView" : 4,
            "componentType" : 5126,
            "count" : 8,
            "max" : [
                0.7624503970146179,
                1,
                0
            ],
            "min" : [
                -0.4381181001663208,
                0,
                -0.04657169058918953
            ],
            "type" : "VEC3"
        },
        {
            "bufferView" : 5,
            "componentType" : 5126,
            "count" : 8,
            "type" : "VEC3"
        },
        {
            "bufferView" : 6,
            "componentType" : 5126,
            "count" : 8,
            "type" : "VEC2"
        },
        {
            "bufferView" : 7,
            "componentType" : 5123,
            "count" : 12,
            "type" : "SCALAR"
        },
        {
            "bufferView" : 8,
            "componentType" : 5126,
            "count" : 4,
            "max" : [
                -0.4381181001663208,
                1,
                0
            ],
            "min" : [
                -0.561881959438324,
                0,
                0
            ],
            "type" : "VEC3"
        },
        {
            "bufferView" : 9,
            "componentType" : 5126,
            "count" : 4,
            "type" : "VEC3"
        },
        {
            "bufferView" : 10,
            "componentType" : 5126,
            "count" : 4,
            "type" : "VEC2"
        },
        {
            "bufferView" : 11,
            "componentType" : 5123,
            "count" : 6,
            "type" : "SCALAR"
        },
        {
            "bufferView" : 12,
            "componentType" : 5126,
            "count" : 4,
            "max" : [
                -0.561881959438324,
                1,
                0
            ],
            "min" : [
                -0.6856457591056824,
                0,
                0
            ],
            "type" : "VEC3"
        },
        {
            "bufferView" : 13,
            "componentType" : 5126,
            "count" : 4,
            "type" : "VEC3"
        },
        {
            "bufferView" : 14,
            "componentType" : 5126,
            "count" : 4,
            "type" : "VEC2"
        },
        {
            "bufferView" : 15,
            "componentType" : 5126,
            "count" : 556,
            "max" : [
                1,
                1,
                1
            ],
            "min" : [
                -1,
                -1,
                -1
            ],
            "type" : "VEC3"
        },
        {
            "bufferView" : 16,
            "componentType" : 5126,
            "count" : 556,
            "type" : "VEC3"
        },
        {
            "bufferView" : 17,
            "componentType" : 5126,
            "count" : 556,
            "type" : "VEC2"
        },
        {
            "bufferView" : 18,
            "componentType" : 5123,
            "count" : 834,
            "type" : "SCALAR"
        },
        {
            "bufferView" : 19,
            "componentType" : 5126,
            "count" : 57,
            "max" : [
                0.2964904010295868,
                0.2964904010295868,
                0.2964904010295868
            ],
            "min" : [
                -0.2964904010295868,
                -0.2964904010295868,
                0
            ],
            "type" : "VEC3"
        },
        {
            "bufferView" : 20,
            "componentType" : 5126,
            "count" : 57,
            "type" : "VEC3"
        },
        {
            "bufferView" : 21,
            "componentType" : 5123,
            "count" : 288,
            "type" : "SCALAR"
        },
        {
            "bufferView" : 22,
            "componentType" : 5126,
            "count" : 248,
            "max" : [
                1,
                1.0157708629776607e-07,
                2.9802322387695312e-08
            ],
            "min" : [
                -1,
                -1,
                -0.9999998211860657
            ],
            "type" : "VEC3"
        },
        {
            "bufferView" : 23,
            "componentType" : 5126,
            "count" : 248,
            "type" : "VEC3"
        },
        {
            "bufferView" : 24,
            "componentType" : 5126,
            "count" : 248,
            "type" : "VEC2"
        },
        {
            "bufferView" : 25,
            "componentType" : 5123,
            "count" : 627,
            "type" : "SCALAR"
        },
        {
            "bufferView" : 26,
            "componentType" : 5126,
            "count" : 5,
            "max" : [
                0.7578147053718567,
                -0.05369219183921814,
                -0.3210652470588684
            ],
            "min" : [
                0.4014437794685364,
                -0.05369235947728157,
                -0.5945695042610168
            ],
            "type" : "VEC3"
        },
        {
            "bufferView" : 27,
            "componentType" : 5126,
            "count" : 5,
            "type" : "VEC3"
        },
        {
            "bufferView" : 28,
            "componentType" : 5126,
            "count" : 5,
            "type" : "VEC2"
        },
        {
            "bufferView" : 29,
            "componentType" : 5123,
            "count" : 9,
            "type" : "SCALAR"
        },
        {
            "bufferView" : 30,
            "componentType" : 5126,
            "count" : 152,
            "max" : [
                0.2523597478866577,
                3.369067869130049e-08,
                -0.33902859687805176
            ],
            "min" : [
                -0.9357644319534302,
                -6.051427448028335e-08,
                -0.6658209562301636
            ],
            "type" : "VEC3"
        },
        {
            "bufferView" : 31,
            "componentType" : 5126,
            "count" : 152,
            "type" : "VEC3"
        },
        {
            "bufferView" : 32,
            "componentType" : 5126,
            "count" : 152,
            "type" : "VEC2"
        },
        {
            "bufferView" : 33,
            "componentType" : 5123,
            "count" : 420,
            "type" : "SCALAR"
        },
        {
            "bufferView" : 34,
            "componentType" : 5126,
            "count" : 390,
            "max" : [
                1,
                8.914677884774846e-09,
                2.9802322387695312e-08
            ],
            "min" : [
                -1,
                -1,
                -0.9999998211860657
            ],
            "type" : "VEC3"
        },
        {
            "bufferView" : 35,
            "componentType" : 5126,
            "count" : 390,
            "type" : "VEC3"
        },
        {
            "bufferView" : 36,
            "componentType" : 5126,
            "count" : 390,
            "type" : "VEC2"
        },
        {
            "bufferView" : 37,
            "componentType" : 5123,
            "count" : 576,
            "type" : "SCALAR"
        }
    ],
    "bufferViews" : [
        {
            "buffer" : 0,
            "byteLength" : 4908,
            "byteOffset" : 0
        },
        {
            "buffer" : 0,
            "byteLength" : 4908,
            "byteOffset" : 4908
        },
        {
            "buffer" : 0,
            "byteLength" : 3272,
            "byteOffset" : 9816
        },
        {
            "buffer" : 0,
            "byteLength" : 1536,
            "byteOffset" : 13088
        },
        {
            "buffer" : 0,
            "byteLength" : 96,
            "byteOffset" : 14624
        },
        {
            "buffer" : 0,
            "byteLength" : 96,
            "byteOffset" : 14720
        },
        {
            "buffer" : 0,
            "byteLength" : 64,
            "byteOffset" : 14816
        },
        {
            "buffer" : 0,
            "byteLength" : 24,
            "byteOffset" : 14880
        },
        {
            "buffer" : 0,
            "byteLength" : 48,
            "byteOffset" : 14904
        },
        {
            "buffer" : 0,
            "byteLength" : 48,
            "byteOffset" : 14952
        },
        {
            "buffer" : 0,
            "byteLength" : 32,
            "byteOffset" : 15000
        },
        {
            "buffer" : 0,
            "byteLength" : 12,
            "byteOffset" : 15032
        },
        {
            "buffer" : 0,
            "byteLength" : 48,
            "byteOffset" : 15044
        },
        {
            "buffer" : 0,
            "byteLength" : 48,
            "byteOffset" : 15092
        },
        {
            "buffer" : 0,
            "byteLength" : 32,
            "byteOffset" : 15140
        },
        {
            "buffer" : 0,
            "byteLength" : 6672,
            "byteOffset" : 15172
        },
        {
            "buffer" : 0,
            "byteLength" : 6672,
            "byteOffset" : 21844
        },
        {
            "buffer" : 0,
            "byteLength" : 4448,
            "byteOffset" : 28516
        },
        {
            "buffer" : 0,
            "byteLength" : 1668,
            "byteOffset" : 32964
        },
        {
            "buffer" : 0,
            "byteLength" : 684,
            "byteOffset" : 34632
        },
        {
            "buffer" : 0,
            "byteLength" : 684,
            "byteOffset" : 35316
        },
        {
            "buffer" : 0,
            "byteLength" : 576,
            "byteOffset" : 36000
        },
        {
            "buffer" : 0,
            "byteLength" : 2976,
            "byteOffset" : 36576
        },
        {
            "buffer" : 0,
            "byteLength" : 2976,
            "byteOffset" : 39552
        },
        {
            "buffer" : 0,
            "byteLength" : 1984,
            "byteOffset" : 42528
        },
        {
            "buffer" : 0,
            "byteLength" : 1254,
            "byteOffset" : 44512
        },
        {
            "buffer" : 0,
            "byteLength" : 60,
            "byteOffset" : 45768
        },
        {
            "buffer" : 0,
            "byteLength" : 60,
            "byteOffset" : 45828
        },
        {
            "buffer" : 0,
            "byteLength" : 40,
            "byteOffset" : 45888
        },
        {
            "buffer" : 0,
            "byteLength" : 18,
            "byteOffset" : 45928
        },
        {
            "buffer" : 0,
            "byteLength" : 1824,
            "byteOffset" : 45948
        },
        {
            "buffer" : 0,
            "byteLength" : 1824,
            "byteOffset" : 47772
        },
        {
            "buffer" : 0,
            "byteLength" : 1216,
            "byteOffset" : 49596
        },
        {
            "buffer" : 0,
            "byteLength" : 840,
            "byteOffset" : 50812
        },
        {
            "buffer" : 0,
            "byteLength" : 4680,
            "byteOffset" : 51652
        },
        {
            "buffer" : 0,
            "byteLength" : 4680,
            "byteOffset" : 56332
        },
        {
            "buffer" : 0,
            "byteLength" : 3120,
            "byteOffset" : 61012
        },
        {
            "buffer" : 0,
            "byteLength" : 1152,
            "byteOffset" : 64132
        }
    ],
    "buffers" : [
        {
            "byteLength" : 65284,
            "uri" : "data:application/octet-stream;base64,"
        }
    ]
}
