{
    "asset" : {
        "generator" : "Khronos glTF Blender I/O v1.8.19",
        "version" : "2.0"
    },
    "extensionsUsed" : [
        "KHR_materials_unlit"
    ],
    "scene" : 0,
    "scenes" : [
        {
            "name" : "Scene",
            "nodes" : [
                0
            ]
        }
    ],
    "nodes" : [
        {
            "mesh" : 0,
            "name" : "Cube"
        }
    ],
    "materials" : [
        {
            "doubleSided" : true,
            "extensions" : {
                "KHR_materials_unlit" : {}
            },
            "name" : "black",
            "pbrMetallicRoughness" : {
                "baseColorFactor" : [
                    0,
                    0,
                    0,
                    1
                ],
                "metallicFactor" : 0,
                "roughnessFactor" : 0.9
            }
        },
        {
            "doubleSided" : true,
            "extensions" : {
                "KHR_materials_unlit" : {}
            },
            "name" : "purple",
            "pbrMetallicRoughness" : {
                "baseColorFactor" : [
                    0.1682688295841217,
                    0.12213850766420364,
                    0.6583746671676636,
                    1
                ],
                "metallicFactor" : 0,
                "roughnessFactor" : 0.9
            }
        },
        {
            "doubleSided" : true,
            "extensions" : {
                "KHR_materials_unlit" : {}
            },
            "name" : "yellow",
            "pbrMetallicRoughness" : {
                "baseColorFactor" : [
                    0.9734451770782471,
                    0.3915722668170929,
                    0.004391565918922424,
                    1
                ],
                "metallicFactor" : 0,
                "roughnessFactor" : 0.9
            }
        },
        {
            "doubleSided" : true,
            "extensions" : {
                "KHR_materials_unlit" : {}
            },
            "name" : "pink",
            "pbrMetallicRoughness" : {
                "baseColorFactor" : [
                    0.5775805711746216,
                    0.021218761801719666,
                    0.27467718720436096,
                    1
                ],
                "metallicFactor" : 0,
                "roughnessFactor" : 0.9
            }
        }
    ],
    "meshes" : [
        {
            "name" : "Cube.001",
            "primitives" : [
                {
                    "attributes" : {
                        "POSITION" : 0,
                        "NORMAL" : 1,
                        "TEXCOORD_0" : 2
                    },
                    "indices" : 3,
                    "material" : 0
                },
                {
                    "attributes" : {
                        "POSITION" : 4,
                        "NORMAL" : 5,
                        "TEXCOORD_0" : 6
                    },
                    "indices" : 7,
                    "material" : 1
                },
                {
                    "attributes" : {
                        "POSITION" : 8,
                        "NORMAL" : 9,
                        "TEXCOORD_0" : 10
                    },
                    "indices" : 11,
                    "material" : 2
                },
                {
                    "attributes" : {
                        "POSITION" : 12,
                        "NORMAL" : 13,
                        "TEXCOORD_0" : 14
                    },
                    "indices" : 15,
                    "material" : 3
                }
            ]
        }
    ],
    "accessors" : [
        {
            "bufferView" : 0,
            "componentType" : 5126,
            "count" : 732,
            "max" : [
                1.9508682489395142,
                1.9508682489395142,
                1.9508682489395142
            ],
            "min" : [
                -1.9508682489395142,
                -1.9508682489395142,
                -1.9508682489395142
            ],
            "type" : "VEC3"
        },
        {
            "bufferView" : 1,
            "componentType" : 5126,
            "count" : 732,
            "type" : "VEC3"
        },
        {
            "bufferView" : 2,
            "componentType" : 5126,
            "count" : 732,
            "type" : "VEC2"
        },
        {
            "bufferView" : 3,
            "componentType" : 5123,
            "count" : 2478,
            "type" : "SCALAR"
        },
        {
            "bufferView" : 4,
            "componentType" : 5126,
            "count" : 454,
            "max" : [
                1.9508682489395142,
                1.9508682489395142,
                1.9508682489395142
            ],
            "min" : [
                -1.9508682489395142,
                -1.9508682489395142,
                -1.9508682489395142
            ],
            "type" : "VEC3"
        },
        {
            "bufferView" : 5,
            "componentType" : 5126,
            "count" : 454,
            "type" : "VEC3"
        },
        {
            "bufferView" : 6,
            "componentType" : 5126,
            "count" : 454,
            "type" : "VEC2"
        },
        {
            "bufferView" : 7,
            "componentType" : 5123,
            "count" : 1302,
            "type" : "SCALAR"
        },
        {
            "bufferView" : 8,
            "componentType" : 5126,
            "count" : 410,
            "max" : [
                1.3402100801467896,
                1.4268077611923218,
                1.8364425897598267
            ],
            "min" : [
                -1.3402094841003418,
                -1.4268076419830322,
                -1.8457132577896118
            ],
            "type" : "VEC3"
        },
        {
            "bufferView" : 9,
            "componentType" : 5126,
            "count" : 410,
            "type" : "VEC3"
        },
        {
            "bufferView" : 10,
            "componentType" : 5126,
            "count" : 410,
            "type" : "VEC2"
        },
        {
            "bufferView" : 11,
            "componentType" : 5123,
            "count" : 1194,
            "type" : "SCALAR"
        },
        {
            "bufferView" : 12,
            "componentType" : 5126,
            "count" : 820,
            "max" : [
                1.3402100801467896,
                1.4268077611923218,
                1.9508682489395142
            ],
            "min" : [
                -1.3402094841003418,
                -1.4268076419830322,
                -1.9508682489395142
            ],
            "type" : "VEC3"
        },
        {
            "bufferView" : 13,
            "componentType" : 5126,
            "count" : 820,
            "type" : "VEC3"
        },
        {
            "bufferView" : 14,
            "componentType" : 5126,
            "count" : 820,
            "type" : "VEC2"
        },
        {
            "bufferView" : 15,
            "componentType" : 5123,
            "count" : 2460,
            "type" : "SCALAR"
        }
    ],
    "bufferViews" : [
        {
            "buffer" : 0,
            "byteLength" : 8784,
            "byteOffset" : 0
        },
        {
            "buffer" : 0,
            "byteLength" : 8784,
            "byteOffset" : 8784
        },
        {
            "buffer" : 0,
            "byteLength" : 5856,
            "byteOffset" : 17568
        },
        {
            "buffer" : 0,
            "byteLength" : 4956,
            "byteOffset" : 23424
        },
        {
            "buffer" : 0,
            "byteLength" : 5448,
            "byteOffset" : 28380
        },
        {
            "buffer" : 0,
            "byteLength" : 5448,
            "byteOffset" : 33828
        },
        {
            "buffer" : 0,
            "byteLength" : 3632,
            "byteOffset" : 39276
        },
        {
            "buffer" : 0,
            "byteLength" : 2604,
            "byteOffset" : 42908
        },
        {
            "buffer" : 0,
            "byteLength" : 4920,
            "byteOffset" : 45512
        },
        {
            "buffer" : 0,
            "byteLength" : 4920,
            "byteOffset" : 50432
        },
        {
            "buffer" : 0,
            "byteLength" : 3280,
            "byteOffset" : 55352
        },
        {
            "buffer" : 0,
            "byteLength" : 2388,
            "byteOffset" : 58632
        },
        {
            "buffer" : 0,
            "byteLength" : 9840,
            "byteOffset" : 61020
        },
        {
            "buffer" : 0,
            "byteLength" : 9840,
            "byteOffset" : 70860
        },
        {
            "buffer" : 0,
            "byteLength" : 6560,
            "byteOffset" : 80700
        },
        {
            "buffer" : 0,
            "byteLength" : 4920,
            "byteOffset" : 87260
        }
    ],
    "buffers" : [
        {
            "byteLength" : 92180,
            "uri" : "data:application/octet-stream;base64,"
        }
    ]
}
